<?xml version="1.0" encoding="UTF-8" standalone="no"?>
<svg
   xmlns:dc="http://purl.org/dc/elements/1.1/"
   xmlns:cc="http://creativecommons.org/ns#"
   xmlns:rdf="http://www.w3.org/1999/02/22-rdf-syntax-ns#"
   xmlns:svg="http://www.w3.org/2000/svg"
   xmlns="http://www.w3.org/2000/svg"
   xmlns:sodipodi="http://sodipodi.sourceforge.net/DTD/sodipodi-0.dtd"
   xmlns:inkscape="http://www.inkscape.org/namespaces/inkscape"
   width="35.035118mm"
   height="45.562294mm"
   viewBox="0 0 35.035118 45.562294"
   version="1.1"
   id="svg8"
   inkscape:version="1.0.2-2 (e86c870879, 2021-01-15)"
   sodipodi:docname="Política de Ecuador - Movimiento CREO Logo 2021.svg">
  <defs
     id="defs2" />
  <sodipodi:namedview
     id="base"
     pagecolor="#ffffff"
     bordercolor="#666666"
     borderopacity="1.0"
     inkscape:pageopacity="0.0"
     inkscape:pageshadow="2"
     inkscape:zoom="1.4"
     inkscape:cx="100.48052"
     inkscape:cy="97.73778"
     inkscape:document-units="mm"
     inkscape:current-layer="layer1"
     inkscape:document-rotation="0"
     showgrid="false"
     showguides="true"
     inkscape:guide-bbox="true"
     fit-margin-top="0"
     fit-margin-left="0"
     fit-margin-right="0"
     fit-margin-bottom="0"
     inkscape:window-width="1366"
     inkscape:window-height="705"
     inkscape:window-x="-8"
     inkscape:window-y="-8"
     inkscape:window-maximized="1">
    <sodipodi:guide
       position="-8.752153,0.86088426"
       orientation="0,-1"
       id="guide869" />
    <sodipodi:guide
       position="-10.756673,17.030683"
       orientation="0,-1"
       id="guide871" />
    <sodipodi:guide
       position="17.540485,46.864643"
       orientation="1,0"
       id="guide881" />
  </sodipodi:namedview>
  <metadata
     id="metadata5">
    <rdf:RDF>
      <cc:Work
         rdf:about="">
        <dc:format>image/svg+xml</dc:format>
        <dc:type
           rdf:resource="http://purl.org/dc/dcmitype/StillImage" />
        <dc:title></dc:title>
      </cc:Work>
    </rdf:RDF>
  </metadata>
  <g
     inkscape:label="Capa 1"
     inkscape:groupmode="layer"
     id="layer1"
     transform="translate(-88.532104,-120.20388)">
    <rect
       style="fill:#ed281f;fill-opacity:1;stroke-width:12.12;stroke-linecap:round;stroke-linejoin:round;paint-order:stroke fill markers"
       id="rect847"
       width="16.772694"
       height="4.4884672"
       x="97.659599"
       y="124.73214" />
    <rect
       style="fill:#f59c21;fill-opacity:1;stroke-width:12.12;stroke-linecap:round;stroke-linejoin:round;paint-order:stroke fill markers"
       id="rect853"
       width="4.2049851"
       height="16.914434"
       x="107.12788"
       y="121.80283" />
    <rect
       style="fill:#33b5e5;fill-opacity:1;stroke-width:12.12;stroke-linecap:round;stroke-linejoin:round;paint-order:stroke fill markers"
       id="rect849"
       width="16.772694"
       height="4.4884672"
       x="97.659599"
       y="131.08212" />
    <rect
       style="fill:#16548d;fill-opacity:1;stroke-width:12.12;stroke-linecap:round;stroke-linejoin:round;paint-order:stroke fill markers"
       id="rect851"
       width="4.2049851"
       height="16.914434"
       x="100.7779"
       y="121.80283" />
    <g
       aria-label="CREO"
       transform="scale(0.99794738,1.0020568)"
       id="text857"
       style="font-size:8.31106px;line-height:1.25;font-family:Bacana;-inkscape-font-specification:Bacana;letter-spacing:-0.547458px;fill:#175296;fill-opacity:1;stroke-width:0.207777">
      <path
         d="m 98.523493,144.00199 1.611077,0.48698 q -0.162323,0.67771 -0.511323,1.13222 -0.348999,0.45451 -0.868441,0.68582 -0.515383,0.23132 -1.314835,0.23132 -0.969895,0 -1.586731,-0.28001 -0.612778,-0.28407 -1.059173,-0.99425 -0.446395,-0.71017 -0.446395,-1.81804 0,-1.47716 0.78322,-2.2685 0.787278,-0.79539 2.223858,-0.79539 1.124103,0 1.765288,0.45451 0.645244,0.45451 0.957722,1.396 l -1.623256,0.36117 q -0.08522,-0.27189 -0.178558,-0.3977 -0.154209,-0.21102 -0.377406,-0.32465 -0.223198,-0.11363 -0.499151,-0.11363 -0.624952,0 -0.95772,0.50321 -0.251604,0.37335 -0.251604,1.1728 0,0.99019 0.300302,1.35948 0.300302,0.36523 0.844092,0.36523 0.527558,0 0.795395,-0.29624 0.271895,-0.29625 0.393639,-0.86033 z"
         style="font-style:normal;font-variant:normal;font-weight:900;font-stretch:normal;font-family:Arial;-inkscape-font-specification:'Arial Heavy';fill:#175296;fill-opacity:1;stroke-width:0.207777"
         id="path883" />
      <path
         d="m 100.50425,146.43282 v -5.94923 h 3.06389 q 0.85221,0 1.30267,0.14609 0.45045,0.1461 0.7264,0.54379 0.27595,0.39364 0.27595,0.96178 0,0.49509 -0.21102,0.85627 -0.21102,0.35711 -0.58031,0.58031 -0.23537,0.14204 -0.64525,0.23537 0.32871,0.10957 0.47886,0.21914 0.10146,0.073 0.29219,0.31248 0.19479,0.23943 0.25972,0.36929 l 0.88873,1.72471 h -2.07776 l -0.98207,-1.81805 q -0.18668,-0.35306 -0.33277,-0.45857 -0.19885,-0.13797 -0.45045,-0.13797 h -0.16233 v 2.41459 z m 1.84645,-3.5387 h 0.77511 q 0.1258,0 0.48697,-0.0812 0.18262,-0.0365 0.29625,-0.18667 0.11768,-0.15016 0.11768,-0.34495 0,-0.28812 -0.18261,-0.44233 -0.18262,-0.15421 -0.68583,-0.15421 h -0.80757 z"
         style="font-style:normal;font-variant:normal;font-weight:900;font-stretch:normal;font-family:Arial;-inkscape-font-specification:'Arial Heavy';fill:#175296;fill-opacity:1;stroke-width:0.207777"
         id="path885" />
      <path
         d="m 106.393,140.48359 h 4.92657 v 1.2702 h -3.08418 v 0.94554 h 2.86098 v 1.21338 h -2.86098 v 1.1728 h 3.17346 v 1.34731 H 106.393 Z"
         style="font-style:normal;font-variant:normal;font-weight:900;font-stretch:normal;font-family:Arial;-inkscape-font-specification:'Arial Heavy';fill:#175296;fill-opacity:1;stroke-width:0.207777"
         id="path887" />
      <path
         d="m 111.62026,143.46226 q 0,-1.45687 0.81163,-2.2685 0.81163,-0.81162 2.26038,-0.81162 1.48528,0 2.28879,0.79945 0.80351,0.79539 0.80351,2.23197 0,1.04294 -0.35306,1.71254 -0.349,0.66553 -1.01453,1.03888 -0.66148,0.36929 -1.65166,0.36929 -1.00642,0 -1.6679,-0.32059 -0.65741,-0.3206 -1.06728,-1.01454 -0.40988,-0.69394 -0.40988,-1.73688 z m 1.83834,0.008 q 0,0.9009 0.33277,1.29454 0.33682,0.39364 0.91308,0.39364 0.59248,0 0.91713,-0.38552 0.32466,-0.38552 0.32466,-1.38383 0,-0.84003 -0.34089,-1.22555 -0.33682,-0.38958 -0.91714,-0.38958 -0.55596,0 -0.89279,0.39364 -0.33682,0.39364 -0.33682,1.30266 z"
         style="font-style:normal;font-variant:normal;font-weight:900;font-stretch:normal;font-family:Arial;-inkscape-font-specification:'Arial Heavy';fill:#175296;fill-opacity:1;stroke-width:0.207777"
         id="path889" />
    </g>
    <rect
       style="fill:#ed281f;fill-opacity:1;stroke-width:8.87246;stroke-linecap:round;stroke-linejoin:round;paint-order:stroke fill markers"
       id="rect863"
       width="8.9884682"
       height="4.4884672"
       x="97.659599"
       y="124.73214" />
    <path
       style="fill:#175296;fill-opacity:1;stroke:none;stroke-width:0.264583px;stroke-linecap:butt;stroke-linejoin:miter;stroke-opacity:1"
       d="m 116.67389,148.69136 v 16.1698 h -4.07587 v -12.09394 l -2.80633,0.80181 -0.8018,-3.47451 4.34313,-1.40316 z"
       id="path873" />
    <path
       style="fill:#175296;fill-opacity:1;stroke:none;stroke-width:0.264583px;stroke-linecap:butt;stroke-linejoin:miter;stroke-opacity:1"
       d="m 95.02506,161.65393 v 3.20723 h 12.6953 v -3.40768 h -6.48129 c 0,0 8.61944,-4.47676 5.87993,-10.08942 0,0 -1.33635,-2.6727 -5.41221,-2.6727 -4.07585,0 -6.68173,3.0736 -6.68173,3.0736 l 3.140419,2.93997 c 0,0 2.338601,-3.60814 4.610391,-1.67044 2.27179,1.93771 -3.583074,5.52079 -3.583074,5.52079 z"
       id="path875"
       sodipodi:nodetypes="ccccccsccscc" />
  </g>
</svg>
