<?xml version="1.0" encoding="utf-8"?>
<!-- Generator: Adobe Illustrator 15.0.0, SVG Export Plug-In . SVG Version: 6.00 Build 0)  -->
<!DOCTYPE svg PUBLIC "-//W3C//DTD SVG 1.1//EN" "http://www.w3.org/Graphics/SVG/1.1/DTD/svg11.dtd">
<svg version="1.1" id="Layer_1" xmlns="http://www.w3.org/2000/svg" xmlns:xlink="http://www.w3.org/1999/xlink" x="0px" y="0px"
	 width="197.182px" height="147.648px" viewBox="0 0 197.182 147.648" enable-background="new 0 0 197.182 147.648"
	 xml:space="preserve">
<g>
	<g>
		<g>
			<path fill="#007698" d="M15.752,137.174c2.365,0,4.039-0.229,5.021-0.692c0.98-0.461,1.471-1.354,1.471-2.683
				c0-1.039-0.637-1.947-1.904-2.727c-1.27-0.779-3.203-1.658-5.799-2.64c-2.021-0.75-3.852-1.528-5.496-2.338
				C7.4,125.289,6,124.322,4.846,123.196c-1.154-1.125-2.049-2.467-2.682-4.024c-0.637-1.558-0.953-3.433-0.953-5.626
				c0-4.27,1.586-7.646,4.762-10.127c3.172-2.48,7.529-3.722,13.068-3.722c2.77,0,5.424,0.246,7.963,0.735
				c2.539,0.491,4.559,1.025,6.059,1.602l-2.25,10.04c-1.5-0.52-3.131-0.98-4.891-1.385c-1.76-0.403-3.736-0.605-5.928-0.605
				c-4.041,0-6.059,1.125-6.059,3.375c0,0.52,0.086,0.982,0.26,1.385c0.172,0.404,0.518,0.794,1.037,1.169
				c0.52,0.376,1.227,0.781,2.121,1.217c0.895,0.438,2.033,0.917,3.42,1.439c2.826,1.048,5.162,2.081,7.01,3.099
				c1.846,1.018,3.303,2.117,4.371,3.297c1.066,1.181,1.818,2.491,2.25,3.93c0.434,1.439,0.65,3.109,0.65,5.008
				c0,4.492-1.688,7.889-5.064,10.192c-3.375,2.302-8.15,3.454-14.324,3.454c-4.039,0-7.4-0.347-10.084-1.039
				S1.037,145.34,0,144.878l2.164-10.474c2.191,0.865,4.441,1.545,6.75,2.034C11.223,136.93,13.502,137.174,15.752,137.174z"/>
			<path fill="#007698" d="M81.182,144.878c-2,0.636-5.061,1.227-8.523,1.774c-3.461,0.547-7.118,0.822-10.927,0.822
				c-3.865,0-7.094-0.52-9.661-1.559c-2.568-1.038-4.607-2.495-6.107-4.371c-1.502-1.874-2.382-4.111-3.017-6.708
				s-0.765-5.452-0.765-8.568v-25.502h13v23.943c0,4.155,0.307,7.156,1.404,9.002c1.096,1.848,3.024,2.77,6.024,2.77
				c0.922,0,1.833-0.043,2.873-0.13c1.039-0.086,1.699-0.187,2.699-0.303v-35.282h13V144.878z"/>
			<path fill="#007698" d="M114.182,122.288c0-4.155-0.586-7.098-1.654-8.829c-1.068-1.73-2.925-2.597-5.522-2.597
				c-0.809,0-1.546,0.044-2.411,0.13c-0.865,0.087-1.412,0.188-2.412,0.303v35.473h-13v-44.301c1-0.288,2.319-0.591,3.792-0.909
				c1.471-0.316,3-0.605,4.644-0.865s3.317-0.461,5.047-0.605c1.732-0.144,3.427-0.217,5.101-0.217c3.289,0,5.953,0.419,8.002,1.255
				c2.049,0.837,3.734,1.833,5.063,2.986c1.846-1.327,3.966-2.365,6.36-3.116c2.395-0.749,4.601-1.125,6.62-1.125
				c3.635,0,6.621,0.506,8.959,1.515c2.336,1.011,4.197,2.438,5.582,4.284c1.385,1.848,2.436,4.04,2.955,6.578
				c0.52,2.54,0.875,5.367,0.875,8.482v26.038h-13v-24.479c0-4.155-0.579-7.098-1.646-8.829c-1.068-1.73-2.923-2.597-5.521-2.597
				c-0.691,0-1.67,0.174-2.91,0.52c-1.242,0.347-2.271,0.779-3.078,1.299c0.402,1.327,0.764,2.726,0.881,4.197
				c0.113,1.472,0.273,3.045,0.273,4.718v25.172h-13V122.288z"/>
			<path fill="#007698" d="M177.607,99.697c3.809,0,6.98,0.433,9.521,1.298c2.537,0.866,4.572,2.107,6.102,3.722
				c1.527,1.616,2.486,3.579,3.123,5.886c0.635,2.309,0.828,4.877,0.828,7.704v26.832c-2,0.404-4.291,0.88-7.58,1.428
				s-7.208,0.822-11.882,0.822c-2.943,0-5.583-0.26-7.978-0.779s-4.441-1.37-6.172-2.553c-1.732-1.183-3.053-2.727-3.975-4.631
				c-0.924-1.904-1.381-4.241-1.381-7.011c0-2.654,0.535-4.904,1.604-6.752c1.066-1.846,2.497-3.317,4.286-4.414
				c1.787-1.096,3.837-1.89,6.146-2.38c2.307-0.49,4.703-0.736,7.184-0.736c1.674,0,3.226,0.073,4.524,0.217
				c1.297,0.145,2.224,0.333,3.224,0.563V117.7c0-2.192-0.729-3.951-2.056-5.279c-1.328-1.327-3.667-1.991-6.956-1.991
				c-2.195,0-4.374,0.16-6.509,0.477c-2.135,0.317-3.991,0.765-5.548,1.341l-1.648-10.386c0.748-0.23,1.686-0.477,2.811-0.736
				s2.349-0.489,3.677-0.692c1.328-0.201,2.727-0.375,4.199-0.52C174.622,99.77,176.105,99.697,177.607,99.697z M178.646,137.434
				c1.268,0,2.546-0.028,3.7-0.086s1.835-0.144,2.835-0.26v-9.781c-1-0.114-1.364-0.229-2.401-0.346
				c-1.039-0.115-2.024-0.173-2.89-0.173c-1.211,0-2.368,0.072-3.435,0.216c-1.068,0.145-2.015,0.419-2.823,0.822
				c-0.809,0.404-1.445,0.952-1.908,1.645c-0.461,0.692-0.693,1.559-0.693,2.597c0,2.021,0.677,3.419,2.032,4.198
				C174.419,137.044,176.279,137.434,178.646,137.434z"/>
		</g>
	</g>
	<g>
		<linearGradient id="SVGID_1_" gradientUnits="userSpaceOnUse" x1="155.8887" y1="96.5015" x2="50.8293" y2="15.8705">
			<stop  offset="0" style="stop-color:#E92126"/>
			<stop  offset="0.5043" style="stop-color:#F08B1D"/>
			<stop  offset="1" style="stop-color:#FDB913"/>
		</linearGradient>
		<path fill="url(#SVGID_1_)" d="M158.643,87.767c5.162-10,8.098-20.8,8.098-32.462C166.74,17.687,149.006,0,111.389,0
			C73.771,0,30.513,17.745,30.513,55.363c0,11.662,2.935,22.404,8.099,32.404H158.643z"/>
		<path fill="#FFFFFF" d="M94.962,75.87c-0.892-0.844-1.989-1.103-3.524-1.103H78.895c-1.443,0-2.988-0.019-4.634,0.271
			c-1.647,0.294-3.315,0.604-5.004,1.096l13.143-13.505c1.782-1.815,3.464-3.625,5.049-5.393c1.582-1.771,2.976-3.611,4.173-5.5
			c1.201-1.89,2.145-3.886,2.836-5.975c0.691-2.093,1.037-4.37,1.037-6.829c0-2.859-0.498-5.481-1.498-7.862
			c-0.998-2.385-2.438-4.437-4.311-6.158c-1.876-1.722-4.145-3.065-6.803-4.034c-2.66-0.97-5.65-1.456-8.971-1.456
			c-3.074,0-5.945,0.41-8.621,1.225s-5.049,2.049-7.128,3.712c-2.073,1.658-3.81,3.733-5.206,6.225
			c-1.403,2.489-2.345,5.41-2.838,8.761l7.563,1.338c0.369,0.061,0.73,0.108,1.084,0.139c0.354,0.029,0.684,0.044,0.99,0.044
			c1.295,0,2.313-0.305,3.069-0.923c0.752-0.61,1.374-1.614,1.866-2.997c0.307-0.829,0.713-1.597,1.223-2.306
			c0.505-0.703,1.113-1.319,1.82-1.844c0.705-0.521,1.506-0.936,2.4-1.246c0.889-0.307,1.875-0.461,2.95-0.461
			c2.612,0,4.558,0.717,5.832,2.147c1.274,1.429,1.914,3.481,1.914,6.155c0,1.631-0.202,3.176-0.599,4.633
			c-0.401,1.463-1,2.922-1.801,4.381c-0.798,1.463-1.813,2.945-3.041,4.451c-1.231,1.509-2.676,3.09-4.336,4.75L51.688,77.115
			c-0.924,0.828-1.575,1.749-1.943,2.762c-0.37,1.018-0.563,1.972-0.563,2.863v5.027h47v-8.718
			C96.182,77.667,95.854,76.717,94.962,75.87z"/>
		<path fill="#FFFFFF" d="M143.613,82.832c2.166-1.752,3.895-3.95,5.188-6.596c1.291-2.643,1.938-5.748,1.938-9.315
			c0-7.53-3.723-12.59-11.158-15.169c1.598-0.557,3.02-1.246,4.262-2.076c1.248-0.832,2.291-1.836,3.139-3.02
			c0.844-1.184,1.482-2.585,1.91-4.197c0.432-1.613,0.65-3.48,0.65-5.604c0-2.334-0.465-4.559-1.387-6.664
			c-0.922-2.104-2.273-3.959-4.057-5.557c-1.781-1.598-3.963-2.865-6.545-3.802c-2.586-0.938-5.535-1.409-8.855-1.409
			c-3.076,0-5.953,0.41-8.625,1.225c-2.674,0.814-5.051,2.049-7.125,3.712c-2.074,1.658-3.813,3.733-5.211,6.225
			c-1.396,2.489-2.344,5.41-2.834,8.761l7.561,1.338c0.371,0.061,0.73,0.108,1.084,0.139c0.352,0.029,0.684,0.044,0.992,0.044
			c1.291,0,2.314-0.305,3.064-0.923c0.754-0.61,1.377-1.614,1.869-2.997c0.305-0.829,0.715-1.597,1.223-2.306
			c0.506-0.703,1.111-1.319,1.822-1.844c0.707-0.521,1.504-0.936,2.395-1.246c0.893-0.307,1.875-0.461,2.953-0.461
			c2.613,0,4.555,0.717,5.834,2.147c1.275,1.429,1.914,3.465,1.914,6.108c0,1.292-0.156,2.476-0.461,3.553
			c-0.311,1.075-0.93,1.988-1.869,2.744c-0.938,0.754-2.434,1.343-4.156,1.773s-3.945,0.645-6.945,0.645v9.867
			c4,0,6.078,0.225,7.936,0.669c1.861,0.447,3.336,1.087,4.258,1.914c0.924,0.831,1.526,1.823,1.726,2.978
			c0.199,1.152,0.319,2.451,0.319,3.895c0,1.107-0.19,2.201-0.587,3.275c-0.402,1.074-0.986,2.036-1.77,2.883
			c-0.785,0.844-1.768,1.536-2.951,2.074c-1.184,0.539-2.574,0.806-4.172,0.806c-2.088,0-3.91-0.575-5.463-1.728
			c-1.551-1.152-3.021-3.003-4.401-5.558c-0.402-0.739-0.994-1.298-1.777-1.685c-0.783-0.384-1.666-0.575-2.652-0.575
			c-0.521,0-1.053,0.045-1.59,0.138c-0.539,0.094-1.084,0.262-1.637,0.509l-6.361,2.582c1.074,3.136,2.34,5.841,3.801,8.114
			c1.461,2.277,3.16,4.143,5.098,5.604c1.936,1.46,4.15,2.769,6.639,3.458c0.35,0.098,0.721-0.514,1.084,0.486h14.402
			c0.67-1,1.334-0.563,1.99-0.764C138.932,86.128,141.445,84.583,143.613,82.832z"/>
	</g>
</g>
</svg>
